<svg width="1080" height="1080" viewBox="0 0 1080 1080" fill="none" xmlns="http://www.w3.org/2000/svg">
<rect width="1080" height="1080" rx="540" fill="white"/>
<path d="M956.892 470.922C942.213 453.122 916.31 442.914 885.843 442.914C853.608 442.914 824.589 453.875 804.491 471.666L807.768 451.127L799.054 448.535C786.718 444.858 773.022 442.914 759.441 442.914C736.103 442.914 713.785 450.13 695.755 462.019L700.944 444.922H561.393L559.738 450.382C547.338 445.396 533.698 442.914 518.329 442.914C489.6 442.914 458.504 454.064 442.358 475.531C441.301 473.96 440.193 472.411 438.962 470.922C424.278 453.122 398.379 442.914 367.908 442.914C336.628 442.914 308.34 453.227 288.33 470.104L296.12 422.742L287.268 420.183C272.152 415.812 255.354 413.5 238.684 413.5C177.531 413.5 121.869 452.372 111.969 501.99C107.755 523.099 112.677 543.547 125.817 559.573C137.017 573.227 153.558 582.962 173.21 587.934H112.622V665.431H421.244L421.722 664.484L421.782 665.431H458.931L463.968 657.218L462.41 665.431H546.401L547.633 658.956C555.014 663.735 564.596 666.332 575.631 666.332C585.494 666.332 594.645 664.287 602.531 660.651L601.626 665.431H719.388L719.59 664.379C725.05 665.61 730.785 666.337 736.264 666.337C739.591 666.337 743.02 666.038 746.43 665.436H791.328L794.66 658.363H797.652L798.566 665.436H937.042L943.927 629.174H941.399L942.346 624.192H944.157L951.051 587.934H947.218C950.343 585.108 952.618 581.477 953.404 577.345C954.332 572.437 953.059 567.441 949.911 563.645C949.093 562.661 948.155 561.797 947.144 561.021C958.128 549.737 965.744 536.083 968.704 520.733C972.321 501.903 968.244 484.677 956.892 470.922ZM876.776 626.462H872.524L878.94 592.746C880.402 592.558 881.859 592.347 883.302 592.117L876.776 626.462ZM777.669 516.785C777.227 519.037 776.924 521.261 776.699 523.453C767.355 529.704 758.6 532.659 749.234 532.659C742.896 532.659 737.408 530.591 734.554 527.125C732.927 525.158 732.38 522.957 732.886 520.397C734.554 511.761 746.269 504.187 757.948 504.187C765.255 504.187 772.122 506.77 778.855 512.055C778.436 513.623 777.972 515.181 777.669 516.785ZM787.127 587.93L782.568 595.444L778.776 593.321C776.281 591.919 773.601 590.839 770.839 589.901C772.861 589.419 774.75 588.877 776.396 588.279L781.713 586.349L786.939 563.438C787.646 564.422 788.317 565.428 789.099 566.375C796.985 575.93 808.347 583.237 822.066 587.925L787.127 587.93ZM833.376 591.101L831.561 600.638L829.038 590.044C830.467 590.416 831.901 590.779 833.376 591.101ZM877.81 505.189C883.499 505.189 887.879 506.701 890.15 509.445C892.232 511.973 892.158 515.194 891.713 517.46C889.902 526.804 880.31 533.33 868.356 533.33C862.542 533.33 857.946 531.795 855.74 529.12C854.214 527.268 853.759 524.671 854.393 521.394C855.942 513.342 864.486 505.189 877.81 505.189ZM615 594.893C613.364 593.785 611.585 592.806 609.728 591.924H615.57L615 594.893ZM582.87 626.453C582.116 627.124 580.889 627.574 579.469 627.657C580.195 627.032 581.335 626.517 582.87 626.453ZM573.738 506.062L566.807 528.877C566.361 522.782 564.463 517.244 561.136 512.317C559.761 510.3 558.125 508.461 556.324 506.715L573.738 506.062ZM373.773 517.456C371.967 526.804 362.361 533.33 350.416 533.33C344.607 533.33 340.006 531.795 337.8 529.12C336.27 527.268 335.819 524.671 336.454 521.394C338.012 513.338 346.556 505.189 359.875 505.189C365.564 505.189 369.949 506.701 372.215 509.445C374.292 511.973 374.209 515.199 373.773 517.456ZM453.866 591.639L453.641 592.117L453.595 591.597C453.687 591.607 453.774 591.625 453.866 591.639ZM556.985 561.264L548.892 587.93H517.81C533.698 582.686 547.945 573.894 556.985 561.264ZM560.359 591.924H562.092C561.448 592.195 560.823 592.471 560.203 592.76L560.359 591.924ZM225.958 521.978C217.088 521.978 209.403 519.064 205.4 514.188C203.084 511.366 202.307 508.241 203.024 504.637C205.341 493.033 220.815 483.23 236.814 483.23C247.614 483.23 257.619 487.283 267.39 495.561C264.808 500.386 262.753 505.442 261.259 510.713C249.324 518.352 238.05 521.978 225.958 521.978ZM408.785 576.922L418.882 581.468C424.461 583.977 430.661 586.124 437.151 587.934H418.367L416.354 591.965L416.097 587.934H383.622C392.703 585.145 401.137 581.436 408.785 576.922ZM654.879 626.462L662.205 587.93H626.651L651.565 505.823L659.162 506.113C657.761 509.863 656.58 513.682 655.812 517.621C652.269 535.945 656.575 553.63 667.954 567.414C675.45 576.5 685.745 583.403 697.791 587.925H666.461L659.13 626.458L654.879 626.462ZM258.86 585.048L264.215 583.164L268.893 563.282C269.642 564.325 270.341 565.382 271.168 566.379C279.05 575.934 290.412 583.242 304.126 587.93H247.421C251.709 587.126 255.652 586.174 258.86 585.048ZM901.562 587.93C906.167 586.51 910.602 584.864 914.862 582.994C915.487 584.492 916.246 585.94 917.298 587.213C917.523 587.479 917.817 587.682 918.052 587.93H901.562Z" fill="white"/>
<path d="M406.352 598.307L408.494 632.175H409.036C410.143 628.714 411.375 625.101 413.103 621.714L424.777 598.307H443.744L446.612 632.175H447.155C448.143 628.861 449.255 625.396 450.772 622.165L462.169 598.307H487.911L453.102 655.053H431.515L429.612 624.196H428.798C427.971 627.137 427.245 629.992 425.903 632.777L414.804 655.053H393.754L380.697 598.307H406.352Z" fill="#005DAA"/>
<path d="M486.11 598.307H509.954L506.323 617.422H521.494L525.13 598.307H548.974L538.191 655.053H514.348L518.093 635.337H502.918L499.172 655.053H475.328L486.11 598.307Z" fill="#005DAA"/>
<path d="M618.808 626.83C615.347 645.044 596.379 655.954 575.615 655.954C554.837 655.954 540.015 645.039 543.48 626.83C546.867 608.993 566.055 597.402 586.737 597.402C607.419 597.402 622.19 608.993 618.808 626.83ZM568.353 627.129C567.117 633.6 571.515 638.044 579.011 638.044C586.512 638.044 592.592 633.6 593.829 627.129C594.968 621.103 591.053 616.066 583.194 616.066C575.325 616.071 569.493 621.108 568.353 627.129ZM624.231 598.307H648.98L641.654 636.84H662.432L658.967 655.049H613.444L624.231 598.307ZM720.98 634.73L722.083 635.562C725.962 638.421 730.847 640.756 736.542 640.756C738.982 640.756 743.022 639.924 743.509 637.368C743.996 634.813 740.788 634.588 738.61 634.206L733.78 633.457C724.381 632.023 717.165 627.28 718.843 618.405C721.412 604.935 737.557 597.407 752.37 597.407C760.137 597.407 766.981 598.992 773.015 602.375L763.571 616.903C759.784 614.494 755.353 612.61 750.022 612.61C747.857 612.61 744.562 613.281 744.13 615.616C743.725 617.721 746.736 618.024 748.565 618.401L753.97 619.453C764.067 621.416 770.772 626.076 768.948 635.709C766.365 649.258 750.279 655.954 735.558 655.954C726.982 655.954 717.413 653.996 710.354 650.761L720.98 634.73Z" fill="#005DAA"/>
<path d="M806.004 634.505L805.016 624.495C804.749 622.087 804.767 619.605 804.781 617.192H803.876L796.076 634.505H806.004ZM784.458 655.053H758.266L792.717 598.307H820.081L833.593 655.053H807.401L806.491 647.98H787.799L784.458 655.053Z" fill="#005DAA"/>
<path d="M842.315 598.307H867.065L859.739 636.84H880.517L877.052 655.049H831.533L842.315 598.307ZM892.434 598.307H938.233L935.282 613.814H914.412L913.382 619.232H932.437L929.638 633.985H910.579L909.526 639.551H931.118L928.163 655.053H881.647L892.434 598.307Z" fill="#005DAA"/>
<path d="M556.647 496.322L587.895 495.15L561.675 581.549H617.741L643.951 495.15L674.496 496.322L686.942 455.299H569.083L556.647 496.322ZM440.558 518.755C432.717 559.268 389.763 583.553 342.701 583.553C295.643 583.553 262.079 559.273 269.92 518.755C277.595 479.069 321.05 453.29 367.905 453.29C414.756 453.29 448.233 479.073 440.558 518.755ZM326.257 519.426C323.476 533.825 333.436 543.706 350.408 543.706C367.39 543.706 381.169 533.829 383.954 519.426C386.546 506.033 377.667 494.819 359.867 494.819C342.067 494.81 328.849 506.033 326.257 519.426Z" fill="#E31837"/>
<path d="M423.138 572C439.137 579.192 460.802 583.554 480.238 583.554C513.591 583.554 550.027 568.654 555.855 538.513C560.001 517.083 544.829 506.7 521.932 502.348L509.698 500.004C505.562 499.163 498.737 498.497 499.642 493.804C500.644 488.615 508.099 487.103 513.012 487.103C525.076 487.103 535.118 491.29 543.694 496.649L565.084 464.335C551.397 456.802 535.918 453.291 518.32 453.291C484.765 453.291 448.172 470.034 442.377 500.004C438.553 519.762 454.928 530.31 476.203 533.495L487.132 535.163C492.086 536.009 499.357 536.505 498.254 542.195C497.151 547.885 488.001 549.728 482.472 549.728C469.58 549.728 458.513 544.539 449.721 538.178L447.216 536.335L423.138 572ZM796.076 458.48C784.862 455.129 772.117 453.291 759.428 453.291C714.213 453.291 673.116 482.76 665.988 519.597C659.02 555.597 687.989 583.558 731.981 583.558C742 583.558 763.16 582.051 772.853 578.535L783.625 531.321C773.22 538.518 762.126 543.041 749.234 543.041C732.463 543.041 720.004 532.323 722.697 518.434C725.353 504.701 741.173 493.823 757.948 493.823C770.633 493.823 780.748 499.682 788.433 506.553L796.076 458.48ZM885.844 453.291C838.993 453.291 795.538 479.07 787.858 518.756C780.022 559.269 813.586 583.554 860.649 583.554C907.702 583.554 950.665 559.273 958.501 518.756C966.167 479.074 932.69 453.291 885.844 453.291ZM877.81 494.811C895.61 494.811 904.494 506.025 901.893 519.417C899.112 533.816 885.329 543.698 868.347 543.698C851.365 543.698 841.41 533.821 844.195 519.417C846.787 506.034 860.01 494.811 877.81 494.811ZM284.377 430.146C270.383 426.097 254.499 423.872 238.675 423.872C182.279 423.872 131.02 459.491 122.136 504.016C113.454 547.531 149.578 581.325 204.44 581.325C216.946 581.325 243.34 579.505 255.414 575.258L268.848 518.181C255.883 526.886 242.035 532.35 225.954 532.35C205.028 532.35 189.499 519.394 192.849 502.592C196.163 486 215.889 472.838 236.809 472.838C252.629 472.838 265.249 479.924 274.822 488.22L284.377 430.146Z" fill="#E31837"/>
<path d="M923.997 575.409C924.838 571.002 929.751 567.449 935.1 567.449C940.409 567.449 944.007 571.002 943.171 575.409C942.321 579.844 937.385 583.397 932.067 583.397C926.722 583.397 923.16 579.84 923.997 575.409ZM940.671 575.409C941.342 571.861 938.796 569.531 934.696 569.531C930.532 569.531 927.168 571.861 926.501 575.409C925.826 578.962 928.298 581.315 932.467 581.315C936.562 581.315 939.995 578.967 940.671 575.409ZM937.256 579.578H934.779L933.221 576.044H931.598L930.927 579.578H928.822L930.408 571.232H935.266C937.408 571.232 938.566 571.825 938.198 573.787C937.918 575.216 936.801 575.952 935.51 576.053L937.256 579.578ZM934.186 574.449C935.238 574.449 936.144 574.449 936.318 573.557C936.456 572.822 935.546 572.822 934.494 572.822H932.214L931.915 574.449H934.186Z" fill="#E31837"/>
<path d="M126.057 655.145H388.453L388.434 655.053H388.218L384.9 640.622H126.057V655.145ZM126.057 634.519H383.494L380.148 620H126.057V634.519ZM126.057 613.805H378.64L377.505 608.515L375.184 598.417H126.057V613.805ZM674.357 598.307H720.151L717.205 613.814H696.34L695.305 619.232H714.36L711.561 633.985H692.506L691.449 639.551H713.037L710.091 655.053H663.566L674.357 598.307Z" fill="#005DAA"/>
</svg>
