<svg width="1443" height="186" viewBox="0 0 1443 186" fill="none" xmlns="http://www.w3.org/2000/svg">
<path d="M292.04 113.84V131.615H275.219V113.84H292.04Z" fill="#00FF33"/>
<path d="M101.131 107.405L115.593 71.3525H136.431L150.892 107.405L173.739 53.2754H192.017L158.927 131.608H142.457L125.987 90.584L109.517 131.608H93.0469L60.0068 53.2754H78.2344L101.131 107.405Z" fill="#00FF33"/>
<path d="M234.648 131.608H215.919L247.453 53.2754H266.182L234.648 131.608Z" fill="#00FF33"/>
<path d="M351.239 131.608H332.509L300.976 53.2754H319.705L351.239 131.608Z" fill="#00FF33"/>
<path fill-rule="evenodd" clip-rule="evenodd" d="M442.381 53.5771C450.167 53.5638 457.642 56.637 463.166 62.124C468.691 67.6111 471.816 75.0651 471.856 82.8516H471.755C471.759 88.0694 470.364 93.1933 467.715 97.6885C465.065 102.183 461.258 105.886 456.691 108.41L465.981 131.608H447.854L440.021 112.125H405.323V131.608H388.502V53.5771H442.381ZM405.323 95.4541H442.381C445.71 95.4541 448.903 94.1315 451.257 91.7773C453.611 89.4232 454.934 86.2307 454.934 82.9014C454.934 79.5721 453.611 76.3786 451.257 74.0244C448.903 71.6704 445.71 70.3477 442.381 70.3477H405.323V95.4541Z" fill="#00FF33"/>
<path fill-rule="evenodd" clip-rule="evenodd" d="M570.768 53.5771C574.612 53.5771 578.419 54.3345 581.971 55.8057C585.522 57.2768 588.749 59.433 591.468 62.1514C594.186 64.8698 596.342 68.0967 597.814 71.6484C599.285 75.2001 600.042 79.0073 600.042 82.8516C600.042 86.6956 599.285 90.5022 597.814 94.0537C596.342 97.6054 594.186 100.833 591.468 103.551C588.749 106.269 585.522 108.426 581.971 109.897C578.419 111.368 574.611 112.125 570.768 112.125H533.711V131.608H516.939V53.5771H570.768ZM533.711 95.4043H570.768C574.096 95.4043 577.29 94.0816 579.644 91.7275C581.997 89.3734 583.321 86.1807 583.321 82.8516C583.321 79.5222 581.998 76.3288 579.644 73.9746C577.29 71.6205 574.096 70.2979 570.768 70.2979H533.711V95.4043Z" fill="#00FF33"/>
<path d="M292.04 94.1553H275.219V76.1797H292.04V94.1553Z" fill="#00FF33"/>
<path fill-rule="evenodd" clip-rule="evenodd" d="M660 185.035H0V0H660V185.035ZM14.0596 171.327H646.141V13.959H14.0596V171.327Z" fill="#00FF33"/>
<path d="M743.368 75.094L751.041 87.8554H751.314L759.022 75.094H766.219L755.482 92.5176L766.389 109.941H759.073L751.314 97.2648H751.041L743.283 109.941H736L747.009 92.5176L736.136 75.094H743.368Z" fill="white"/>
<path d="M842.389 11.5175H950.689V29.4175H907.089V173.517H886.089V29.4175H842.389V11.5175ZM1117.99 58.8175C1122.69 69.3175 1124.79 80.4175 1124.79 92.5175C1124.79 108.317 1121.09 122.517 1113.19 135.617C1105.29 148.217 1095.29 158.717 1082.19 166.117C1068.49 172.917 1054.29 176.617 1037.99 176.617C1022.19 176.617 1007.49 172.917 994.389 165.617C981.289 158.317 970.689 148.217 963.389 135.117C955.489 122.017 951.789 107.817 951.789 92.0175C951.789 79.9175 953.889 68.9175 958.589 58.3175C963.289 47.8175 969.089 38.8175 976.989 31.5175C984.389 24.7175 993.789 18.9175 1004.29 14.7175C1014.79 10.5175 1026.39 8.41748 1037.99 8.41748C1050.09 8.41748 1061.09 10.5175 1071.69 14.7175C1082.19 18.9175 1091.69 24.7175 1098.99 32.1175C1107.49 39.9175 1113.29 48.3175 1117.99 58.8175ZM1103.29 92.5175C1103.29 78.8175 1100.09 67.3175 1094.39 56.7175C1082.79 36.2175 1062.29 25.7175 1038.09 25.7175C1020.19 25.7175 1003.89 32.0175 991.789 43.1175C980.189 54.1175 972.889 72.0175 972.889 92.0175C972.889 112.517 980.289 129.917 991.789 140.917C1003.89 151.917 1019.69 158.317 1038.09 158.317C1050.19 158.317 1061.19 155.717 1070.69 150.417C1080.69 145.117 1088.09 137.317 1094.39 127.317C1100.59 117.717 1103.29 105.617 1103.29 92.5175ZM1277.89 11.5175L1229.49 129.817L1181.59 11.5175H1174.79L1131.69 173.517H1152.69L1181.59 65.2175L1227.39 173.517H1232.09L1278.39 65.2175L1307.29 173.517H1328.29L1284.69 11.5175H1277.89ZM1398.29 80.4175C1375.19 70.9175 1363.09 60.9175 1363.09 47.3175C1363.09 41.0175 1365.69 35.7175 1370.99 31.5175C1376.29 27.3175 1382.59 25.2175 1390.99 25.2175C1405.19 25.2175 1417.29 31.5175 1428.29 43.6175H1431.49L1430.39 21.5175C1419.89 13.1175 1407.29 8.91748 1391.99 8.91748C1378.89 8.91748 1367.79 12.6175 1358.29 19.9175C1349.39 27.3175 1344.59 36.7175 1344.59 48.8175C1344.59 59.3175 1348.29 68.3175 1355.59 76.1175C1362.99 84.0175 1372.99 90.8175 1385.59 96.1175C1396.59 100.817 1404.49 105.017 1410.79 110.817C1417.59 116.617 1420.79 123.417 1420.79 131.817C1420.79 140.217 1418.19 147.017 1412.39 152.317C1406.59 157.617 1399.29 160.217 1389.29 160.217C1380.39 160.217 1371.89 158.117 1365.09 153.417C1358.29 148.717 1351.39 142.917 1345.59 135.517H1343.49L1341.89 158.117C1354.99 170.217 1370.79 176.517 1389.19 176.517C1404.39 176.517 1417.09 171.817 1427.09 162.817C1437.09 153.317 1442.29 142.317 1442.29 128.117C1441.89 107.217 1426.69 92.0175 1398.29 80.4175Z" fill="white"/>
</svg>
