<svg width="1568" height="186" viewBox="0 0 1568 186" fill="none" xmlns="http://www.w3.org/2000/svg">
<path d="M1547.15 0.375H847.097C835.808 0.375 826.656 9.52658 826.656 20.8156V164.974C826.656 176.263 835.808 185.415 847.097 185.415H1547.15C1558.44 185.415 1567.59 176.263 1567.59 164.974V20.8156C1567.59 9.52658 1558.44 0.375 1547.15 0.375Z" fill="#0E2954" stroke="#0E2954" stroke-width="0.407516" stroke-miterlimit="10"/>
<path d="M1545.5 13.4803H849.533C843.881 13.4803 839.299 18.0624 839.299 23.7146V162.085C839.299 167.737 843.881 172.319 849.533 172.319H1545.5C1551.15 172.319 1555.73 167.737 1555.73 162.085V23.7146C1555.73 18.0624 1551.15 13.4803 1545.5 13.4803Z" fill="white"/>
<path d="M991.534 74.9967V13.4803H849.116C843.466 13.4803 838.882 18.0649 838.882 23.7146V162.085C838.882 167.734 843.466 172.319 849.116 172.319H991.534V106.663L1007.36 90.8343L991.534 75.006V74.9967Z" fill="#294D99"/>
<path d="M872.529 157.241C868.519 157.241 866.981 155.555 866.981 151.628V35.5973C866.981 31.6704 868.51 29.9847 872.529 29.9847H908.474C944.419 29.9847 957.033 43.0808 957.033 59.1777V69.4675C957.033 78.4513 952.634 85.3791 944.03 90.2415C955.885 94.9187 963.34 102.782 963.34 112.701V126.547C963.34 142.644 950.726 157.241 914.781 157.241H872.529ZM898.527 54.3153V81.2669H908.465C917.828 81.2669 925.858 77.7104 925.858 68.9118V64.0494C925.858 55.436 917.828 54.3153 908.465 54.3153H898.527ZM898.527 104.097V132.92H914.781C924.145 132.92 932.175 129.548 932.175 120.944V114.952C932.175 107.839 924.145 104.097 914.781 104.097H898.527Z" fill="white"/>
<path d="M1084.9 65.309C1084.9 56.8993 1079.04 53.7874 1070.6 53.7874C1062.16 53.7874 1056.12 56.8993 1056.12 65.309V67.1336C1056.12 72.0701 1059.97 74.2651 1061.98 74.9968L1092.77 85.4162C1106.34 89.9915 1115.69 99.494 1115.69 113.025V126.01C1115.69 141.737 1104.51 157.278 1070.05 157.278C1035.58 157.278 1024.03 141.737 1024.03 126.01V113.757C1024.03 109.913 1025.5 108.274 1029.35 108.274H1048.41C1052.26 108.274 1053.54 109.923 1053.54 113.757V121.981C1053.54 130.391 1060.69 133.503 1069.67 133.503C1078.66 133.503 1085.99 130.391 1085.99 121.981V118.323C1085.99 111.738 1077.2 108.635 1070.23 106.07L1043.83 96.1968C1034.49 92.7237 1026.78 82.4802 1026.78 71.8756V61.2709C1026.78 45.5445 1036.31 30.0033 1070.23 30.0033C1104.15 30.0033 1114.41 45.5445 1114.41 61.2709V68.0319C1114.41 71.8756 1112.95 73.5149 1109.09 73.5149H1090.03C1086.18 73.5149 1084.9 71.8663 1084.9 68.0319V65.2905V65.309Z" fill="#0E2954" stroke="#0E2954" stroke-width="0.407516" stroke-miterlimit="10"/>
<path d="M1206.34 31.726C1210.22 31.726 1211.89 33.0041 1211.89 36.8384V51.0737C1211.89 54.9081 1210.22 56.3714 1206.34 56.3714H1182.66V150.387C1182.66 154.222 1181.36 155.861 1177.48 155.861H1157.5C1153.62 155.861 1152.14 154.222 1152.14 150.387V56.3714H1128.46C1124.58 56.3714 1122.91 54.9081 1122.91 51.0737V36.8384C1122.91 33.0041 1124.58 31.726 1128.46 31.726H1206.35H1206.34Z" fill="#0E2954" stroke="#0E2954" stroke-width="0.407516" stroke-miterlimit="10"/>
<path d="M1221.16 61.2893C1221.16 45.5629 1233.49 30.0217 1268.06 30.0217C1302.63 30.0217 1315.15 45.5629 1315.15 61.2893V126.02C1315.15 141.746 1302.64 157.287 1268.06 157.287C1233.48 157.287 1221.16 141.746 1221.16 126.02V61.2893ZM1284.8 66.5963C1284.8 58.1866 1277.07 54.7135 1268.06 54.7135C1259.05 54.7135 1251.51 58.1866 1251.51 66.5963V120.722C1251.51 129.131 1259.05 132.605 1268.06 132.605C1277.07 132.605 1284.8 129.131 1284.8 120.722V66.5963Z" fill="#0E2954" stroke="#0E2954" stroke-width="0.407516" stroke-miterlimit="10"/>
<path d="M1423.57 126.01C1423.57 141.737 1413.03 157.278 1378.85 157.278C1344.67 157.278 1334.13 141.737 1334.13 126.01V61.2893C1334.13 45.5629 1344.67 30.0217 1378.85 30.0217C1413.03 30.0217 1423.57 45.5629 1423.57 61.2893V69.699C1423.57 73.5426 1422.3 75.1819 1418.47 75.1819H1399.75C1395.94 75.1819 1394.48 73.5333 1394.48 69.699V66.587C1394.48 58.1774 1388.12 54.7042 1379.21 54.7042C1370.3 54.7042 1364.12 58.1774 1364.12 66.587V120.713C1364.12 129.122 1370.3 132.595 1379.21 132.595C1388.12 132.595 1394.48 129.122 1394.48 120.713V114.859C1394.48 111.016 1395.94 109.376 1399.75 109.376H1418.47C1422.29 109.376 1423.57 111.025 1423.57 114.859V126.01Z" fill="#0E2954" stroke="#0E2954" stroke-width="0.407516" stroke-miterlimit="10"/>
<path d="M1539.89 150.017C1541.76 152.758 1541.01 155.49 1537.09 155.49H1511.32C1507.4 155.49 1505.35 152.749 1503.47 150.017L1473.97 105.292H1471.91V150.017C1471.91 153.851 1470.61 155.49 1466.68 155.49H1446.51C1442.59 155.49 1441.09 153.851 1441.09 150.017V36.8384C1441.09 33.0041 1442.58 31.3647 1446.51 31.3647H1466.68C1470.6 31.3647 1471.91 33.0041 1471.91 36.8384V83.3879H1473.78L1502.35 36.8384C1504.23 33.921 1507.21 31.3647 1511.13 31.3647H1532.61C1536.53 31.3647 1537.09 33.921 1535.22 36.8384L1499.74 92.3347L1539.89 150.026V150.017Z" fill="#0E2954" stroke="#0E2954" stroke-width="0.407516" stroke-miterlimit="10"/>
<path d="M292.04 113.84V131.615H275.219V113.84H292.04Z" fill="#00FF33"/>
<path d="M101.131 107.405L115.593 71.3525H136.431L150.892 107.405L173.739 53.2754H192.017L158.927 131.608H142.457L125.987 90.584L109.517 131.608H93.0469L60.0068 53.2754H78.2344L101.131 107.405Z" fill="#00FF33"/>
<path d="M234.648 131.608H215.919L247.453 53.2754H266.182L234.648 131.608Z" fill="#00FF33"/>
<path d="M351.239 131.608H332.509L300.976 53.2754H319.705L351.239 131.608Z" fill="#00FF33"/>
<path fill-rule="evenodd" clip-rule="evenodd" d="M442.381 53.5771C450.167 53.5638 457.642 56.637 463.166 62.124C468.691 67.6111 471.816 75.0651 471.856 82.8516H471.755C471.759 88.0694 470.364 93.1933 467.715 97.6885C465.065 102.183 461.258 105.886 456.691 108.41L465.981 131.608H447.854L440.021 112.125H405.323V131.608H388.502V53.5771H442.381ZM405.323 95.4541H442.381C445.71 95.4541 448.903 94.1315 451.257 91.7773C453.611 89.4232 454.934 86.2307 454.934 82.9014C454.934 79.5721 453.611 76.3786 451.257 74.0244C448.903 71.6704 445.71 70.3477 442.381 70.3477H405.323V95.4541Z" fill="#00FF33"/>
<path fill-rule="evenodd" clip-rule="evenodd" d="M570.768 53.5771C574.612 53.5771 578.419 54.3345 581.971 55.8057C585.522 57.2768 588.749 59.433 591.468 62.1514C594.186 64.8698 596.342 68.0967 597.814 71.6484C599.285 75.2001 600.042 79.0073 600.042 82.8516C600.042 86.6956 599.285 90.5022 597.814 94.0537C596.342 97.6054 594.186 100.833 591.468 103.551C588.749 106.269 585.522 108.426 581.971 109.897C578.419 111.368 574.611 112.125 570.768 112.125H533.711V131.608H516.939V53.5771H570.768ZM533.711 95.4043H570.768C574.096 95.4043 577.29 94.0816 579.644 91.7275C581.997 89.3734 583.321 86.1807 583.321 82.8516C583.321 79.5222 581.998 76.3288 579.644 73.9746C577.29 71.6205 574.096 70.2979 570.768 70.2979H533.711V95.4043Z" fill="#00FF33"/>
<path d="M292.04 94.1553H275.219V76.1797H292.04V94.1553Z" fill="#00FF33"/>
<path fill-rule="evenodd" clip-rule="evenodd" d="M660 185.035H0V0H660V185.035ZM14.0596 171.327H646.141V13.959H14.0596V171.327Z" fill="#00FF33"/>
<path d="M737.856 93.352L720.36 67H731.304L737.712 76.432C739.872 79.672 741.672 82.696 743.616 86.296L755.856 67H766.584L749.376 93.28L766.656 119.632H755.784L749.88 110.92C747.576 107.392 745.704 104.224 743.616 100.408L730.8 119.632H720L737.856 93.352Z" fill="white"/>
</svg>
