<svg width="600" height="169" viewBox="0 0 600 169" fill="none" xmlns="http://www.w3.org/2000/svg">
<path d="M0 3.10001H108.3V21H64.7V165.1H43.7V21H0V3.10001ZM275.6 50.4C280.3 60.9 282.4 72 282.4 84.1C282.4 99.9 278.7 114.1 270.8 127.2C262.9 139.8 252.9 150.3 239.8 157.7C226.1 164.5 211.9 168.2 195.6 168.2C179.8 168.2 165.1 164.5 152 157.2C138.9 149.9 128.3 139.8 121 126.7C113.1 113.6 109.4 99.4 109.4 83.6C109.4 71.5 111.5 60.5 116.2 49.9C120.9 39.4 126.7 30.4 134.6 23.1C142 16.3 151.4 10.5 161.9 6.3C172.4 2.1 184 0 195.6 0C207.7 0 218.7 2.1 229.3 6.3C239.8 10.5 249.3 16.3 256.6 23.7C265.1 31.5 270.9 39.9 275.6 50.4ZM260.9 84.1C260.9 70.4 257.7 58.9 252 48.3C240.4 27.8 219.9 17.3 195.7 17.3C177.8 17.3 161.5 23.6 149.4 34.7C137.8 45.7 130.5 63.6 130.5 83.6C130.5 104.1 137.9 121.5 149.4 132.5C161.5 143.5 177.3 149.9 195.7 149.9C207.8 149.9 218.8 147.3 228.3 142C238.3 136.7 245.7 128.9 252 118.9C258.2 109.3 260.9 97.2 260.9 84.1ZM435.5 3.10001L387.1 121.4L339.2 3.10001H332.4L289.3 165.1H310.3L339.2 56.8L385 165.1H389.7L436 56.8L464.9 165.1H485.9L442.3 3.10001H435.5ZM555.9 72C532.8 62.5 520.7 52.5 520.7 38.9C520.7 32.6 523.3 27.3 528.6 23.1C533.9 18.9 540.2 16.8 548.6 16.8C562.8 16.8 574.9 23.1 585.9 35.2H589.1L588 13.1C577.5 4.70001 564.9 0.5 549.6 0.5C536.5 0.5 525.4 4.2 515.9 11.5C507 18.9 502.2 28.3 502.2 40.4C502.2 50.9 505.9 59.9 513.2 67.7C520.6 75.6 530.6 82.4 543.2 87.7C554.2 92.4 562.1 96.6 568.4 102.4C575.2 108.2 578.4 115 578.4 123.4C578.4 131.8 575.8 138.6 570 143.9C564.2 149.2 556.9 151.8 546.9 151.8C538 151.8 529.5 149.7 522.7 145C515.9 140.3 509 134.5 503.2 127.1H501.1L499.5 149.7C512.6 161.8 528.4 168.1 546.8 168.1C562 168.1 574.7 163.4 584.7 154.4C594.7 144.9 599.9 133.9 599.9 119.7C599.5 98.8 584.3 83.6 555.9 72Z" fill="white"/>
</svg>
