<svg width="48" height="48" viewBox="0 0 48 48" fill="none" xmlns="http://www.w3.org/2000/svg">
<path fill-rule="evenodd" clip-rule="evenodd" d="M24 6C25.4978 6 26.9609 6.45027 28.1997 7.29199L38.6997 14.376C39.7164 15.063 40.5487 15.9892 41.124 17.0728C41.6993 18.1563 42.0005 19.3646 42 20.5913V34.5015C41.9976 36.4892 41.2071 38.3957 39.8013 39.8013C38.3953 41.2069 36.4884 41.9976 34.5 42C34.1022 42 33.7208 41.8418 33.4395 41.5605C33.1932 41.3143 33.0413 40.9915 33.0073 40.6479L33 40.5H15C15 40.8977 14.8418 41.2793 14.5606 41.5605C14.2792 41.8418 13.8978 42 13.5 42C11.5116 41.9976 9.60474 41.2069 8.19874 39.8013C6.79292 38.3957 6.00239 36.4892 6.00001 34.5015V20.5913C5.99855 19.3645 6.29925 18.1564 6.87452 17.0728C7.44995 15.9889 8.28287 15.0624 9.3003 14.376L19.8003 7.29199C21.0391 6.45027 22.5022 6 24 6ZM24 9.00293C23.1022 9.00293 22.2252 9.27385 21.4834 9.7793L10.9834 16.8618C10.3728 17.2737 9.87163 17.8302 9.52588 18.4805C9.18044 19.1304 9.00004 19.8553 9 20.5913V34.5015C9.00114 35.4316 9.29054 36.3391 9.82764 37.0986C10.3647 37.858 11.1234 38.4324 12 38.7436V25.5044C12 23.9136 12.6327 22.3886 13.7578 21.2637C14.883 20.1388 16.4087 19.5059 18 19.5059H30C31.5913 19.5059 33.117 20.1388 34.2422 21.2637C35.3673 22.3886 36 23.9136 36 25.5044V38.7436C36.8766 38.4324 37.6353 37.858 38.1724 37.0986C38.7095 36.3391 38.9989 35.4316 39 34.5015V20.5913C39 19.8553 38.8196 19.1304 38.4741 18.4805C38.1284 17.8302 37.6272 17.2737 37.0166 16.8618L26.5166 9.7793C25.7748 9.27385 24.8978 9.00293 24 9.00293ZM15 37.5H33V34.5H15V37.5ZM15 31.5H33V28.5029H15V31.5ZM18 22.5059C17.2045 22.5059 16.4415 22.821 15.8789 23.3833C15.3163 23.9457 15 24.709 15 25.5044H33C33 24.709 32.6837 23.9457 32.1211 23.3833C31.5585 22.821 30.7955 22.5059 30 22.5059H18Z" fill="#00FF33"/>
</svg>
